<svg xmlns="http://www.w3.org/2000/svg" viewBox="0 0 128 127.91"><title>classification-ma</title><path d="M11.15.47h105.8a10.59,10.59,0,0,1,10.59,10.59V116.87A10.58,10.58,0,0,1,117,127.45H11.15A10.58,10.58,0,0,1,.57,116.87V11A10.58,10.58,0,0,1,11.15.47Z" fill="#ed1c24"/><path d="M117,128H11.15a11.06,11.06,0,0,1-11.05-11V11.09A11.06,11.06,0,0,1,11.15,0H117a11.06,11.06,0,0,1,11,11V116.91A11.06,11.06,0,0,1,117,128ZM11.15,1A10.13,10.13,0,0,0,1,11.09V116.91A10.13,10.13,0,0,0,11.15,127H117a10.13,10.13,0,0,0,10.11-10.12V11.09A10.13,10.13,0,0,0,117,1Z" transform="translate(0 -0.04)" fill="#231f20"/><path d="M.47,99.19v17.72A10.61,10.61,0,0,0,11,127.49h105.8a10.61,10.61,0,0,0,10.58-10.58V99.19Z" transform="translate(0 -0.04)"/><path d="M116.85,128H11a11.06,11.06,0,0,1-11-11V98.72H127.9v18.18A11.06,11.06,0,0,1,116.85,128ZM.93,99.66v17.25A10.13,10.13,0,0,0,11,127h105.8A10.13,10.13,0,0,0,127,116.91V99.66Z" transform="translate(0 -0.04)"/><path d="M17.88,119.51l-3.08-6.16H12v6.16H9.82V104.89h5.67A4.18,4.18,0,0,1,20,109.16,3.84,3.84,0,0,1,17.1,113l3.37,6.47Zm-2.57-12.62H12v4.58h3.28a2.3,2.3,0,1,0,0-4.58Z" transform="translate(0 -0.04)" fill="#fff"/><path d="M22.75,119.51V104.89h9.34v2H25v4.27H31v2H25v4.39h7.12v2Z" transform="translate(0 -0.04)" fill="#fff"/><path d="M38.5,119.63a6.61,6.61,0,0,1-5.17-1.93l1.48-1.46a4.82,4.82,0,0,0,3.73,1.39c1.91,0,3-.82,3-2.24a1.94,1.94,0,0,0-.58-1.51,2.52,2.52,0,0,0-1.6-.62L37.66,113a5,5,0,0,1-2.77-1.17,3.65,3.65,0,0,1-1.07-2.8c0-2.54,1.85-4.29,4.89-4.29a6.07,6.07,0,0,1,4.54,1.66l-1.41,1.4a4.3,4.3,0,0,0-3.19-1.13c-1.72,0-2.67,1-2.67,2.28a1.75,1.75,0,0,0,.55,1.36,3.34,3.34,0,0,0,1.64.68l1.67.24a4.85,4.85,0,0,1,2.73,1.09,3.81,3.81,0,0,1,1.19,3C43.75,118,41.56,119.63,38.5,119.63Z" transform="translate(0 -0.04)" fill="#fff"/><path d="M51.17,106.88v12.62H48.95V106.88h-4v-2H55.19v2Z" transform="translate(0 -0.04)" fill="#fff"/><path d="M65.27,119.51l-3.08-6.16H59.42v6.16H57.2V104.89h5.66a4.18,4.18,0,0,1,4.54,4.27A3.84,3.84,0,0,1,64.49,113l3.36,6.47Zm-2.57-12.62H59.42v4.58h3.29a2.3,2.3,0,1,0,0-4.58Z" transform="translate(0 -0.04)" fill="#fff"/><path d="M70.14,119.51V104.89h2.22v14.62Z" transform="translate(0 -0.04)" fill="#fff"/><path d="M80.38,119.63a5.3,5.3,0,0,1-3.84-1.56c-1.44-1.44-1.42-3.06-1.42-5.87s0-4.43,1.42-5.87a5.31,5.31,0,0,1,3.84-1.56,5,5,0,0,1,5.21,4.49H83.33a3,3,0,0,0-5.11-1.62c-.72.78-.89,1.62-.89,4.56s.17,3.77.89,4.55a2.91,2.91,0,0,0,2.15.88,3,3,0,0,0,3-2.5h2.23A5,5,0,0,1,80.38,119.63Z" transform="translate(0 -0.04)" fill="#fff"/><path d="M92.57,106.88v12.62H90.36V106.88h-4v-2H96.6v2Z" transform="translate(0 -0.04)" fill="#fff"/><path d="M98.61,119.51V104.89H108v2h-7.12v4.27h6.07v2h-6.07v4.39H108v2Z" transform="translate(0 -0.04)" fill="#fff"/><path d="M119.39,118.13a5.23,5.23,0,0,1-3.77,1.37h-5.14V104.89h5.14a5.2,5.2,0,0,1,3.77,1.38c1.58,1.59,1.48,3.72,1.48,5.83S121,116.56,119.39,118.13Zm-1.52-10.27a3.16,3.16,0,0,0-2.48-1h-2.69v10.63h2.69a3.15,3.15,0,0,0,2.48-1c.76-.84.78-2.43.78-4.44S118.62,108.71,117.87,107.87Z" transform="translate(0 -0.04)" fill="#fff"/><path d="M89.38,59.48V40.88l-3.91,3.45V41.92l3.91-3.38H91.5V59.48Z" transform="translate(0 -0.04)" fill="#fff"/><path d="M104.95,58.13a5.64,5.64,0,0,1-4.18,1.56,5.88,5.88,0,0,1-4.21-1.5,5.66,5.66,0,0,1-1.47-3.65h2.12c.27,2.09,1.35,3.27,3.56,3.27a3.65,3.65,0,0,0,2.59-1c1.09-1.09,1.15-2.76,1.15-4.26,0-2.56-.5-5.09-3.53-5.09-1.82,0-3.05.82-3.47,2.06H95.59v-11h10.59v1.88H97.5v6.65a4.91,4.91,0,0,1,3.76-1.44,5,5,0,0,1,3.62,1.32c1.53,1.53,1.74,3.65,1.74,5.62S106.45,56.63,104.95,58.13Z" transform="translate(0 -0.04)" fill="#fff"/><path d="M116.48,52.6v5.18h-2V52.6h-5.18v-2h5.18V45.51h2v5.12h5.15v2Z" transform="translate(0 -0.04)" fill="#fff"/><path d="M39.55,63.88V47.79L34.28,58.26H30.64L25.33,47.79V63.88h-5.4V36.26h5.31L32.46,51.2l7.17-14.94h5.32V63.88Z" transform="translate(0 -0.04)" fill="#fff"/><path d="M65.3,63.88,63.67,59H53.86l-1.67,4.88H46.57l10-27.61h4.22L70.92,63.88ZM58.86,44.41l-3.48,10h6.86Z" transform="translate(0 -0.04)" fill="#fff"/><path d="M64.46,21.3H24.63L6.83,49.85,24.63,78.4H65L82.75,49.85,65,21.3ZM64,23.09,80.64,49.85,64,76.61H25.61c-.5-.8-16.11-25.86-16.67-26.76.57-.9,16.18-26,16.67-26.76Z" transform="translate(0 -0.04)" fill="#fff"/></svg>