<svg xmlns="http://www.w3.org/2000/svg" viewBox="0 0 128 127.9"><title>classification-r</title><rect x="0.57" y="0.47" width="126.97" height="126.97" rx="10.58" ry="10.58" fill="#231f20"/><path d="M117,128H11.15a11.06,11.06,0,0,1-11-11V11.09a11.06,11.06,0,0,1,11-11H117a11.06,11.06,0,0,1,11,11V116.91A11.06,11.06,0,0,1,117,128ZM11.15,1A10.12,10.12,0,0,0,1,11.09V116.91A10.12,10.12,0,0,0,11.15,127H117a10.12,10.12,0,0,0,10.11-10.11V11.09A10.12,10.12,0,0,0,117,1Z" transform="translate(0 -0.05)" fill="#231f20"/><path d="M.47,99.18v17.72A10.61,10.61,0,0,0,11,127.49H116.85a10.61,10.61,0,0,0,10.58-10.58V99.18Z" transform="translate(0 -0.05)"/><path d="M116.85,128H11a11.06,11.06,0,0,1-11-11V98.72H127.9v18.19A11.06,11.06,0,0,1,116.85,128ZM.93,99.65v17.26A10.12,10.12,0,0,0,11,127H116.85A10.12,10.12,0,0,0,127,116.91V99.65Z" transform="translate(0 -0.05)"/><path d="M17.88,119.5l-3.08-6.15H12v6.15H9.82V104.88h5.66A4.18,4.18,0,0,1,20,109.15,3.84,3.84,0,0,1,17.1,113l3.37,6.47Zm-2.57-12.62H12v4.58h3.29a2.3,2.3,0,1,0,0-4.58Z" transform="translate(0 -0.05)" fill="#fff"/><path d="M22.75,119.5V104.88h9.34v2H25v4.26H31v2H25v4.39h7.13v2Z" transform="translate(0 -0.05)" fill="#fff"/><path d="M38.49,119.62a6.6,6.6,0,0,1-5.17-1.93l1.48-1.46a4.82,4.82,0,0,0,3.74,1.4c1.91,0,3-.83,3-2.24a2,2,0,0,0-.58-1.52,2.52,2.52,0,0,0-1.6-.62L37.66,113a5,5,0,0,1-2.77-1.17,3.63,3.63,0,0,1-1.07-2.79c0-2.55,1.85-4.29,4.89-4.29a6.1,6.1,0,0,1,4.54,1.66l-1.42,1.4a4.31,4.31,0,0,0-3.18-1.13c-1.72,0-2.67,1-2.67,2.28a1.73,1.73,0,0,0,.55,1.35,3.29,3.29,0,0,0,1.64.68l1.67.25a4.83,4.83,0,0,1,2.73,1.09,3.81,3.81,0,0,1,1.19,3C43.75,118,41.56,119.62,38.49,119.62Z" transform="translate(0 -0.05)" fill="#fff"/><path d="M51.17,106.88V119.5H48.95V106.88h-4v-2H55.19v2Z" transform="translate(0 -0.05)" fill="#fff"/><path d="M65.27,119.5l-3.08-6.15H59.42v6.15H57.2V104.88h5.66a4.18,4.18,0,0,1,4.54,4.27A3.84,3.84,0,0,1,64.49,113l3.37,6.47ZM62.7,106.88H59.42v4.58H62.7a2.3,2.3,0,1,0,0-4.58Z" transform="translate(0 -0.05)" fill="#fff"/><path d="M70.13,119.5V104.88h2.22V119.5Z" transform="translate(0 -0.05)" fill="#fff"/><path d="M80.38,119.62a5.3,5.3,0,0,1-3.84-1.56c-1.44-1.43-1.42-3.06-1.42-5.87s0-4.44,1.42-5.87a5.3,5.3,0,0,1,3.84-1.56,5,5,0,0,1,5.21,4.5H83.33a3,3,0,0,0-5.11-1.62c-.72.78-.88,1.62-.88,4.56s.16,3.78.88,4.56a2.92,2.92,0,0,0,2.16.88,3,3,0,0,0,3-2.51h2.24A5,5,0,0,1,80.38,119.62Z" transform="translate(0 -0.05)" fill="#fff"/><path d="M92.57,106.88V119.5H90.36V106.88h-4v-2H96.6v2Z" transform="translate(0 -0.05)" fill="#fff"/><path d="M98.61,119.5V104.88H108v2h-7.13v4.26h6.08v2h-6.08v4.39H108v2Z" transform="translate(0 -0.05)" fill="#fff"/><path d="M119.38,118.12a5.22,5.22,0,0,1-3.78,1.37h-5.13V104.88h5.13a5.2,5.2,0,0,1,3.78,1.38c1.58,1.58,1.48,3.72,1.48,5.83S121,116.55,119.38,118.12Zm-1.52-10.26a3.15,3.15,0,0,0-2.48-1h-2.69v10.63h2.69a3.15,3.15,0,0,0,2.48-1c.76-.84.78-2.42.78-4.43S118.62,108.7,117.87,107.86Z" transform="translate(0 -0.05)" fill="#fff"/><rect x="0.35" y="98.39" width="127.3" height="1.5" fill="#fff"/><path d="M82.77,64.58v-22l-4.63,4.08V43.77l4.63-4h2.51V64.58Z" transform="translate(0 -0.05)" fill="#fff"/><path d="M96.19,64.79a7,7,0,0,1-7.32-7,6.75,6.75,0,0,1,3.73-6,6.05,6.05,0,0,1-3.25-5.5,6.83,6.83,0,0,1,13.66,0,6,6,0,0,1-3.21,5.5,6.73,6.73,0,0,1,3.69,6A7,7,0,0,1,96.19,64.79Zm0-11.92A4.84,4.84,0,1,0,101,57.71,4.74,4.74,0,0,0,96.19,52.87Zm0-11.08a4.23,4.23,0,0,0-4.32,4.46,4.32,4.32,0,1,0,8.65,0A4.23,4.23,0,0,0,96.19,41.79Z" transform="translate(0 -0.05)" fill="#fff"/><path d="M115.56,56.42v6.14h-2.34V56.42h-6.13V54.09h6.13V48h2.34v6.07h6.1v2.33Z" transform="translate(0 -0.05)" fill="#fff"/><path d="M47,70.76,40.42,57.32H35.68V70.76H29.1V37H42.31c6.87,0,10.94,4.68,10.94,10.32a9.08,9.08,0,0,1-6.15,8.86l7.52,14.54ZM41.88,42.92h-6.2v8.89h6.2c2.89,0,4.79-1.84,4.79-4.44S44.77,42.92,41.88,42.92Z" transform="translate(0 -0.05)" fill="#fff"/><path d="M40.47,19.49,6.34,53.62l34.91,34.9,34.9-34.9L41.24,18.72Zm.77,2.31L73.07,53.62,41.25,85.44,9.42,53.62Z" transform="translate(0 -0.05)" fill="#fff"/></svg>