<svg xmlns="http://www.w3.org/2000/svg" viewBox="0 0 128 128"><title>classification-m</title><path d="M127.53,116.94a10.62,10.62,0,0,1-10.59,10.59H11.06A10.62,10.62,0,0,1,.47,116.94V11.05A10.62,10.62,0,0,1,11.06.47H116.95a10.62,10.62,0,0,1,10.59,10.59Z" transform="translate(0 0)" fill="#00adee"/><path d="M116.95,128H11.06A11.07,11.07,0,0,1,0,116.94V11.05A11.07,11.07,0,0,1,11.06,0H116.95A11.07,11.07,0,0,1,128,11.05V116.94A11.07,11.07,0,0,1,116.95,128ZM11.06.93A10.13,10.13,0,0,0,.93,11.05V116.94a10.14,10.14,0,0,0,10.13,10.13H116.95a10.14,10.14,0,0,0,10.12-10.13V11.05A10.13,10.13,0,0,0,116.95.93Z" transform="translate(0 0)" fill="#231f20"/><path d="M75.48,86.63v-26L67,77.56H61.1L52.52,60.68v26H43.83V42.1H52.4L64,66.17,75.6,42.1h8.58V86.63Z" transform="translate(0 0)" fill="#fff"/><path d="M27.21,64A36.79,36.79,0,1,0,64,27.21,36.83,36.83,0,0,0,27.21,64Zm2.88,0A33.92,33.92,0,1,1,64,97.91,34,34,0,0,1,30.09,64Z" transform="translate(0 0)" fill="#fff"/></svg>