<svg xmlns="http://www.w3.org/2000/svg" viewBox="0 0 128 128.01"><title>classification-g</title><path d="M128,117.33A10.7,10.7,0,0,1,117.33,128H10.66A10.7,10.7,0,0,1,0,117.33V10.66A10.69,10.69,0,0,1,10.66,0H117.33A10.7,10.7,0,0,1,128,10.66Z" transform="translate(0 0)" fill="#0db14b"/><path d="M75.31,86.81A15.18,15.18,0,0,1,63.8,91.44a15,15,0,0,1-11-4.46c-4.13-4.13-4-9.23-4-16.27s-.12-12.15,4-16.27A14.81,14.81,0,0,1,63.8,50C73.26,50,78.06,56.16,79.15,63h-8c-.92-3.84-3.26-6-7.33-6a6.62,6.62,0,0,0-5.1,2.18c-1.54,1.72-1.95,3.61-1.95,11.46s.4,9.79,1.95,11.51a6.59,6.59,0,0,0,5.1,2.12,7.52,7.52,0,0,0,5.67-2.28,7.86,7.86,0,0,0,1.83-5.45V75.06H63.8V68.42H79.21v6C79.21,80.28,78.18,83.83,75.31,86.81Z" transform="translate(0 0)" fill="#fff"/><path d="M62.86,24.68l-43.15,73h88.59L64,22.76ZM64,27.94l39.66,67.13H24.33C26.5,91.42,61.9,31.48,64,27.94Z" transform="translate(0 0)" fill="#fff"/></svg>