<svg xmlns="http://www.w3.org/2000/svg" viewBox="0 0 128 128"><title>classification-ctc</title><path d="M127.53,116.94a10.62,10.62,0,0,1-10.59,10.59H11.06A10.62,10.62,0,0,1,.47,116.94V11.05A10.62,10.62,0,0,1,11.06.47H116.95a10.62,10.62,0,0,1,10.59,10.59Z" transform="translate(0 0)" fill="#f7941d"/><path d="M116.95,128H11.06A11.07,11.07,0,0,1,0,116.94V11.05A11.07,11.07,0,0,1,11.06,0H116.95A11.07,11.07,0,0,1,128,11.05V116.94A11.07,11.07,0,0,1,116.95,128ZM11.06.93A10.13,10.13,0,0,0,.93,11.05V116.94a10.14,10.14,0,0,0,10.13,10.13H116.95a10.14,10.14,0,0,0,10.12-10.13V11.05A10.13,10.13,0,0,0,116.95.93Z" transform="translate(0 0)" fill="#231f20"/><path d="M41.16,54.27A20.93,20.93,0,0,0,41,50.7,5.4,5.4,0,0,0,39.9,48a3.1,3.1,0,0,0-1.08-.87,11.62,11.62,0,0,0-1.35-.57,7.07,7.07,0,0,0-1.35-.33,8.67,8.67,0,0,0-4,.36,8.28,8.28,0,0,0-2,1,5.26,5.26,0,0,0-1.17,1.11,2.82,2.82,0,0,0-.45.78,4.15,4.15,0,0,1-.27.57,5.65,5.65,0,0,0-.42,1.32A24.15,24.15,0,0,0,27.41,54a44.57,44.57,0,0,0-.18,4.47V70.07a26.78,26.78,0,0,0,.6,6.34A8.87,8.87,0,0,0,29.48,80a4.74,4.74,0,0,0,2.46,1.59A12.19,12.19,0,0,0,35,82a9.21,9.21,0,0,0,1.74-.24A5.57,5.57,0,0,0,39,80.58a7.3,7.3,0,0,0,2-2.7,12,12,0,0,0,.84-5h5.71a19.47,19.47,0,0,1-.63,5.77,12.66,12.66,0,0,1-1.8,3.87,8.17,8.17,0,0,1-2.52,2.34,12.43,12.43,0,0,1-2.79,1.2,11.67,11.67,0,0,1-2.58.45q-1.2.06-1.92.06a32.21,32.21,0,0,1-4.41-.33,9.21,9.21,0,0,1-4.44-2A11.87,11.87,0,0,1,23,79.19a27.46,27.46,0,0,1-1.38-9.79V57.15a24.81,24.81,0,0,1,1-7.6,12,12,0,0,1,2.79-4.83,10.06,10.06,0,0,1,4.38-2.55,20.63,20.63,0,0,1,5.77-.75q6.43,0,9.1,3.27t2.25,9.58Z" transform="translate(0 0)"/><path d="M78,42.32v4.8H66.55V85.68H61V47.13H49.62v-4.8Z" transform="translate(0 0)"/><path d="M100.05,54.27a20.93,20.93,0,0,0-.18-3.57A5.4,5.4,0,0,0,98.79,48a3.1,3.1,0,0,0-1.08-.87,11.66,11.66,0,0,0-1.35-.57A7.08,7.08,0,0,0,95,46.19a8.67,8.67,0,0,0-4,.36,8.27,8.27,0,0,0-2,1,5.25,5.25,0,0,0-1.17,1.11,2.83,2.83,0,0,0-.45.78,4.17,4.17,0,0,1-.27.57,5.65,5.65,0,0,0-.42,1.32A24.28,24.28,0,0,0,86.3,54a44.73,44.73,0,0,0-.18,4.47V70.07a26.81,26.81,0,0,0,.6,6.34A8.88,8.88,0,0,0,88.37,80a4.74,4.74,0,0,0,2.46,1.59,12.19,12.19,0,0,0,3,.36,9.22,9.22,0,0,0,1.74-.24,5.57,5.57,0,0,0,2.28-1.14,7.3,7.3,0,0,0,2-2.7,12,12,0,0,0,.84-5h5.7a19.49,19.49,0,0,1-.63,5.77,12.65,12.65,0,0,1-1.8,3.87,8.17,8.17,0,0,1-2.52,2.34,12.44,12.44,0,0,1-2.79,1.2,11.66,11.66,0,0,1-2.58.45q-1.2.06-1.92.06a32.2,32.2,0,0,1-4.41-.33,9.21,9.21,0,0,1-4.44-2,11.87,11.87,0,0,1-3.45-5.11,27.46,27.46,0,0,1-1.38-9.79V57.15a24.83,24.83,0,0,1,1-7.6,12,12,0,0,1,2.79-4.83,10.06,10.06,0,0,1,4.38-2.55,20.63,20.63,0,0,1,5.76-.75q6.43,0,9.1,3.27t2.25,9.58Z" transform="translate(0 0)"/></svg>