<svg xmlns="http://www.w3.org/2000/svg" viewBox="0 0 128 128"><title>classification-e</title><path d="M127.53,116.94a10.62,10.62,0,0,1-10.59,10.59H11.06A10.62,10.62,0,0,1,.47,116.94V11.05A10.62,10.62,0,0,1,11.06.47H116.95a10.62,10.62,0,0,1,10.59,10.59Z" transform="translate(0 0)" fill="#818286"/><path d="M116.95,128H11.06A11.07,11.07,0,0,1,0,116.94V11.05A11.07,11.07,0,0,1,11.06,0H116.95A11.07,11.07,0,0,1,128,11.05V116.94A11.07,11.07,0,0,1,116.95,128ZM11.06.93A10.13,10.13,0,0,0,.93,11.05V116.94a10.14,10.14,0,0,0,10.13,10.13H116.95a10.14,10.14,0,0,0,10.12-10.13V11.05A10.13,10.13,0,0,0,116.95.93Z" transform="translate(0 0)" fill="#231f20"/><path d="M39.07,30.42V97.58H88.93V30.42ZM86,94.67H42V33.34H86Z" transform="translate(0 0)" fill="#fff"/><polygon points="78.74 49.26 78.74 41.8 49.26 41.8 49.26 44.36 49.26 49.26 49.26 78.21 49.26 82.16 49.26 86.11 78.74 86.11 78.74 78.21 57.96 78.21 57.96 67.64 75.88 67.64 75.88 59.91 57.96 59.91 57.96 49.26 78.74 49.26" fill="#fff"/></svg>