<svg xmlns="http://www.w3.org/2000/svg" viewBox="0 0 128 128"><title>classification-pg</title><path d="M127.53,116.94a10.62,10.62,0,0,1-10.59,10.59H11.06A10.62,10.62,0,0,1,.47,116.94V11.05A10.62,10.62,0,0,1,11.06.47H116.95a10.62,10.62,0,0,1,10.59,10.59Z" transform="translate(0 0)" fill="#fff100"/><path d="M116.95,128H11.06A11.07,11.07,0,0,1,0,116.94V11.05A11.07,11.07,0,0,1,11.06,0H116.95A11.07,11.07,0,0,1,128,11.05V116.94A11.07,11.07,0,0,1,116.95,128ZM11.06.93A10.13,10.13,0,0,0,.93,11.05V116.94a10.14,10.14,0,0,0,10.12,10.13H116.95a10.13,10.13,0,0,0,10.12-10.13V11.05A10.13,10.13,0,0,0,116.95.93Z" transform="translate(0 0)" fill="#231f20"/><path d="M46.08,70.17H37V87.86H27.85v-47H46.08c9.7,0,15.51,6.67,15.51,14.65S55.78,70.17,46.08,70.17ZM45.61,49H37V61.92h8.57c4.16,0,6.81-2.58,6.81-6.41S49.77,49,45.61,49Z" transform="translate(0 0)" fill="#231f20"/><path d="M95.66,82.91A17.48,17.48,0,0,1,82.4,88.25,17.31,17.31,0,0,1,69.71,83.1C65,78.34,65.09,72.47,65.09,64.35s-.14-14,4.62-18.75A17.11,17.11,0,0,1,82.4,40.45c10.89,0,16.43,7.13,17.69,15.06H90.84c-1-4.42-3.77-6.87-8.44-6.87a7.59,7.59,0,0,0-5.87,2.51c-1.79,2-2.26,4.17-2.26,13.2s.47,11.29,2.26,13.27a7.53,7.53,0,0,0,5.87,2.45,8.65,8.65,0,0,0,6.54-2.64A9.07,9.07,0,0,0,91,71.16V69.37H82.4V61.71h17.75v6.86C100.15,75.38,99,79.46,95.66,82.91Z" transform="translate(0 0)" fill="#231f20"/><path d="M110.79,28.48H15.69l0,71h96.61v-71Zm-1.53,3V96.41H18.74c0-2.84,0-62,0-64.88Z" transform="translate(0 0)" fill="#231f20"/></svg>