<svg id="a4ba8eb6-8d89-432f-b3b4-2e5f592789b6" data-name="Layer 1" xmlns="http://www.w3.org/2000/svg" width="288" height="194" viewBox="0 0 288 194"><defs><style>.e0b447de-a00c-41e0-8151-06956ccfd66f{fill:#333;fill-rule:evenodd;}</style></defs><title>Artboard 1</title><path class="e0b447de-a00c-41e0-8151-06956ccfd66f" d="M124.92,41.89c-8.66-.53-10-10.34-2.6-16.18-.83,2.5.05,4,1.47,4.45,2.7.93,4.55-1.44,6.44-2.88,10.9-8.38,28.43-9.07,38.72.93,9.69,9.4,7.83,17.37,3.14,27.64-2.68,5.88,2.41,8.18,6.52,4.76-.15,3.18-3.16,5.79-7.43,7.94,1,.49,2.83.13,3.76-.07a16.12,16.12,0,0,1-4.44,4c13.27,8.37,11.57,23.43,22,29.94,9.87,6.2,17.45,2.17,26.79,5.8,8,3.14,12.06,12.28,11.57,20.51-.33,5.38-2.3,11.46-6.06,18.25-9.42-.15-16.48,2.19-21.64,6.57a41.16,41.16,0,0,1,22.4-4.26c4.13-.76,9.55-1.84,11.59-2.73,2.66-4.44,6.09-6.26,9.89-6.44,5.47-.26,9.49,2.81,15.11,3.26a41.62,41.62,0,0,0,10-1.06c2.59-.53,7.8-2.15,4.28,2.3-2,2.54-5.78,4.62-9.69,6.7-7.28,3.87-16.58,7.9-26,12.77-13,6.72-35.46,22-50.35,15.18-11-5-11.64-17.51-9.92-28,1.38-8.36,4.94-15.22,9.18-21.66a36.74,36.74,0,0,0-9.47,11.58c-26.13-1.77-39-16.49-44.23-38.6a17.32,17.32,0,0,0,8.7-3c-11.2,1.68-21.2-.49-31.42-2.9L89.8,137.17A11.62,11.62,0,0,0,89,134.4l22.1-38.28c-3.8-.91-7.65-1.81-11.61-2.54a131.77,131.77,0,0,0-16.42-2c-2.68.19-5.4.51-8.12.9v.84c-5.25,6.57-7.22,12.93-6.22,19.12,2.26,13.67,14.63,15.58,18.9,27.31a15.28,15.28,0,0,1-.27,11.28c-3.14,7.1-13.85,10.09-19.27,5-3.92-3.7-2.26-10.54,2.23-11.68a7.51,7.51,0,0,1,5.4,1.14c-4.86-.83-6.15,2.29-5.17,4.87,1.77,4.59,7.92,4.27,10.2-.59a10.79,10.79,0,0,0,1-4.19c.22-6.63-10.13-14.13-15.33-18.21-12.53-9.82-12-23.83-.42-33.8-3-.38-4.19-4.54-4.83-7.44a20.51,20.51,0,0,1,.33-9.63c.36-1.46.71-1.87-.55-2.67H22.45c1.81,1.26,3.42,2.67,4,4.47,2.1,6.46-5.89,10-12.21,4.45-4.07-3.63-9.17-9.56-14.58-11,5.41-1.44,10.51-7.37,14.58-11,6.32-5.58,14.31-2,12.21,4.45-.58,1.81-2.19,3.21-4,4.47H67c.06-1.22.13-2.44.2-3.65-12.73-10-13.77-24.65-.82-34.81C71.57,27.13,81.92,19.63,81.7,13a10.82,10.82,0,0,0-1-4.22C78.43,4,72.28,3.63,70.51,8.23c-1,2.57.31,5.69,5.17,4.89a7.63,7.63,0,0,1-5.4,1.11c-4.49-1.13-6.15-8-2.23-11.68,5.42-5.1,16.13-2.09,19.27,5a15.28,15.28,0,0,1,.27,11.28C83.32,30.54,71,32.46,68.69,46.13c-1,6.18,1,12.55,6.22,19.12v4.43h40.31L89,24.19a11.35,11.35,0,0,0,.84-2.77l30.27,52.42H77.39A28,28,0,0,0,79.93,76c15.4.73,30.91,1.15,45.87-.27a169.74,169.74,0,0,1,20.56-1.23,50.86,50.86,0,0,0-19.12-.95,17.66,17.66,0,0,1-5.36-10.76c-.77-1-2.23-1.5-2.94-2.76a1.75,1.75,0,0,1,0-1.69,45,45,0,0,1,3.12-4.24c2-2.82,2.18-2.53,2.1-5.8a23.72,23.72,0,0,1,.71-6.37ZM257.19,190.8a247,247,0,0,1-39-12.35c8.37-4.24,16.26-8.49,23.08-12.74A45.75,45.75,0,0,0,253,175.86a11.32,11.32,0,0,1,5.82-2.81c5.27-.75,9.16,2.19,12.19,6,3.21,4,2.22,4.82,7.22,7.12,3.1,1.44,6.7,2.74,8.72,4.05,2.37,1.51,1.19,2.06-1.06,2.86-7.29,2.6-22.31-.74-28.68-2.24ZM217.52,88.51c-22.38,6.15-31.12-2.7-36.69-10.62,15.13-1.77,18.56-11.36,15.67-20.2-1.84-5.71-7.93-11.42-5.43-18.22,2.62-7.14,13.48-4.67,19.52-4.44,16.11.62,39.36.57,51-11.88-2.51,14.46-14,22.81-34.85,24.91,11.66.8,21.86-1.31,29.93-7.72-6.26,15.57-19,22.61-36.88,23,8.76,1.08,17.5.77,26.26-2.79-6.55,13.23-18.58,17.85-35.44,14.87a38.14,38.14,0,0,0,26.26.39c-9.91,11.13-23.45,13.68-40.84,7,3.65,3.16,8.34,7,21.44,5.69Z"/></svg>