<svg id="Layer_1" data-name="Layer 1" xmlns="http://www.w3.org/2000/svg" width="45" height="45" viewBox="0 0 45 45">
  <title>dollar</title>
  <path d="M25.51,28.6a3.16,3.16,0,0,0-.7-2.18,6.81,6.81,0,0,0-2.49-1.49C21.13,24.46,20,24,19,23.51a11.43,11.43,0,0,1-2.59-1.67,6.4,6.4,0,0,1-1.67-2.19,7.07,7.07,0,0,1-.59-3,6.38,6.38,0,0,1,2.07-4.89A9.07,9.07,0,0,1,21.77,9.5V5.8h2.89V9.57a8.24,8.24,0,0,1,5.22,2.64,8.09,8.09,0,0,1,1.9,5.51H25.64a4.68,4.68,0,0,0-.72-2.81,2.42,2.42,0,0,0-2.07-1,2.43,2.43,0,0,0-1.87.72,2.9,2.9,0,0,0-.66,2,2.79,2.79,0,0,0,.76,2.07,7.53,7.53,0,0,0,2.46,1.45q1.68.7,3.18,1.44a12.1,12.1,0,0,1,2.59,1.7A7.18,7.18,0,0,1,31,25.53a6.85,6.85,0,0,1,.61,3,6.51,6.51,0,0,1-2,4.9,8.63,8.63,0,0,1-5.36,2.21V39.2H21.41V35.65A9.32,9.32,0,0,1,15.34,33a8.13,8.13,0,0,1-2.12-5.85h6.12a4.47,4.47,0,0,0,.92,3,3.27,3.27,0,0,0,2.6,1.05,2.44,2.44,0,0,0,2.65-2.67Z"/>
  <path d="M22.5,0A22.5,22.5,0,1,0,45,22.5,22.5,22.5,0,0,0,22.5,0Zm0,41.2A18.7,18.7,0,1,1,41.2,22.5,18.7,18.7,0,0,1,22.5,41.2Z"/>
</svg>
