<svg id="Layer_1" data-name="Layer 1" xmlns="http://www.w3.org/2000/svg" width="30" height="30" viewBox="0 0 30 30">
  <title>fighter</title>
  <path d="M21.81,27.34V14.63a.53.53,0,0,0,0-.23A12.58,12.58,0,0,0,25,8.05C28.47,4.38,30.62.94,29.84.16S25.62,1.53,22,5a12.58,12.58,0,0,0-6.35,3.2.53.53,0,0,0-.23,0H2.66a2,2,0,0,0-1.24.51L.17,10a.43.43,0,0,0,.17.76L10,14.29A10.56,10.56,0,0,0,7.82,18a1,1,0,0,0-.34-.06H2.38a2,2,0,0,0-1.24.51l-.36.37a.46.46,0,0,0,.14.81L4,21l-.64,1a.45.45,0,0,0,.07.47l.75.75a.43.43,0,0,0,.46.07l1.75-1.14.18.08a2.34,2.34,0,0,1,1,1l.23.51L6.71,25.34a.43.43,0,0,0,.07.46l.75.75a.43.43,0,0,0,.46.07L8.88,26l1.31,2.82A.48.48,0,0,0,11,29l.37-.37a2,2,0,0,0,.51-1.23V22.29s0,0,0-.05A10.56,10.56,0,0,0,15.71,20l3.58,9.68a.43.43,0,0,0,.76.17l1.25-1.25A2,2,0,0,0,21.81,27.34Z" transform="translate(0 0)"/>
</svg>
