<svg id="Layer_1" data-name="Layer 1" xmlns="http://www.w3.org/2000/svg" width="76" height="100" viewBox="0 0 76 100">
  <title>grapes</title>
  <g>
    <path d="M22.23,42.86A11.12,11.12,0,1,0,11.11,54,11.11,11.11,0,0,0,22.23,42.86Z"/>
    <path d="M26.89,42.86A11.11,11.11,0,1,0,38,31.76,11.09,11.09,0,0,0,26.89,42.86Z"/>
    <path d="M64.88,31.76A11.1,11.1,0,1,0,76,42.86,11.11,11.11,0,0,0,64.88,31.76Z"/>
    <path d="M35.67,65.88A11.12,11.12,0,1,0,24.56,77,11.1,11.1,0,0,0,35.67,65.88Z"/>
    <path d="M51.44,54.78a11.1,11.1,0,1,0,11.12,11.1A11.1,11.1,0,0,0,51.44,54.78Z"/>
    <path d="M38,77.81A11.1,11.1,0,1,0,49.11,88.9,11.09,11.09,0,0,0,38,77.81Z"/>
    <path d="M35.83,27.44v0h6.63v0c20.43.71,18.37-15.78,18.37-15.78-12.91,1.66-16.91,8.08-18.14,12.2.64-5.77,2.83-14.68,8.67-18.21L47.92,0C38.94,5.43,36.63,17.73,36,23.88c-.79-6.42-5.09-19-26.64-17.21C9.39,6.67,9.13,24.93,35.83,27.44Z"/>
  </g>
</svg>
