<svg id="Layer_1" data-name="Layer 1" xmlns="http://www.w3.org/2000/svg" width="100" height="90" viewBox="0 0 100 90">
  <title>icons_property</title>
  <path d="M99,34.24,51.56.47a2.57,2.57,0,0,0-3,0L1,33.34A2.44,2.44,0,0,0,.48,36.8l3.66,4.91a2.55,2.55,0,0,0,3.52.55L48.58,14.1a2.55,2.55,0,0,1,3,0l40.8,29.06a2.55,2.55,0,0,0,3.52-.55l3.66-4.92A2.43,2.43,0,0,0,99,34.24Z"/>
  <path d="M83.62,44.42,50.8,21.52a1.85,1.85,0,0,0-2.11,0L15.87,44.42a1.75,1.75,0,0,0-.76,1.45V88.22A1.8,1.8,0,0,0,16.93,90H82.57a1.81,1.81,0,0,0,1.82-1.78V45.87A1.76,1.76,0,0,0,83.62,44.42ZM47.18,54.17a9.87,9.87,0,0,0,3.19,2q2.21.93,4.15,1.94a15.78,15.78,0,0,1,3.37,2.28,9.4,9.4,0,0,1,2.23,3,9.62,9.62,0,0,1,.8,4.09A8.9,8.9,0,0,1,58.36,74a11,11,0,0,1-7,3v4.76H47.61V77a12,12,0,0,1-7.91-3.54,11.15,11.15,0,0,1-2.76-7.88h8a6.23,6.23,0,0,0,1.19,4.1,4.22,4.22,0,0,0,3.4,1.41,3.35,3.35,0,0,0,2.53-1A3.67,3.67,0,0,0,53,67.47,4.36,4.36,0,0,0,52,64.54a8.69,8.69,0,0,0-3.24-2c-1.55-.63-3-1.27-4.28-1.92a14.5,14.5,0,0,1-3.38-2.24,8.72,8.72,0,0,1-2.18-3,10,10,0,0,1-.76-4.07,8.72,8.72,0,0,1,2.7-6.58,11.56,11.56,0,0,1,7.19-3v-5h3.76v5.08a10.61,10.61,0,0,1,6.8,3.56,11.08,11.08,0,0,1,2.47,7.42h-8A6.49,6.49,0,0,0,52.17,49a3.12,3.12,0,0,0-2.7-1.32,3.07,3.07,0,0,0-2.42,1,4,4,0,0,0-.86,2.71A3.84,3.84,0,0,0,47.18,54.17Z"/>
</svg>
