<svg id="Layer_1" data-name="Layer 1" xmlns="http://www.w3.org/2000/svg" width="34" height="89.75" viewBox="0 0 34 89.75">
  <defs>
    <style>
      .cls-1 {
        fill: #45636d;
      }
    </style>
  </defs>
  <title>man icon</title>
  <g>
    <path class="cls-1" d="M19.5,21.09c4.57,0,8.43-4.63,8.43-10.09,0-5.13-3.62-9-8.43-9s-8.43,3.87-8.43,9C11.07,16.46,14.93,21.09,19.5,21.09Z" transform="translate(-2.5 -2)"/>
    <path class="cls-1" d="M33.73,23.83H5.27A2.78,2.78,0,0,0,2.5,26.61V54a2.78,2.78,0,0,0,2.77,2.78h.1A2.78,2.78,0,0,0,8.14,54V34.1a1.13,1.13,0,0,1,2.25,0V88.2A3.56,3.56,0,0,0,14,91.75h.89a3.55,3.55,0,0,0,3.53-3.34c0-.07,0-.14,0-.21V56.32a1.12,1.12,0,0,1,1.12-1.12h0a1.12,1.12,0,0,1,1.12,1.12V88.2c0,.07,0,.14,0,.21a3.55,3.55,0,0,0,3.53,3.34h.89a3.56,3.56,0,0,0,3.56-3.55V34.1a1.13,1.13,0,0,1,2.25,0V54a2.78,2.78,0,0,0,2.77,2.78h.1A2.78,2.78,0,0,0,36.5,54V26.61A2.78,2.78,0,0,0,33.73,23.83Z" transform="translate(-2.5 -2)"/>
  </g>
</svg>
