<?xml version="1.0" encoding="utf-8"?>
<!-- Generator: Adobe Illustrator 22.1.0, SVG Export Plug-In . SVG Version: 6.00 Build 0)  -->
<svg version="1.1" id="Layer_1" xmlns="http://www.w3.org/2000/svg" xmlns:xlink="http://www.w3.org/1999/xlink" x="0px" y="0px"
	 width="200px" height="30px" viewBox="0 0 200 30" style="enable-background:new 0 0 200 30;" xml:space="preserve">
<style type="text/css">
	.st0{fill:#810000;}
</style>
<g id="quote">
	<path class="st0" d="M91.9,13.6c3.6,0.8,6.5,3.4,6.5,7.9c0,5.1-4,8.5-8.9,8.5c-6,0-9.5-4.9-9.5-11.7C80,8.3,86.6,0.9,98.8,0v3.4
		c-7,1.1-11,4.6-11.7,10.2H91.9z M113.5,13.6c3.6,0.8,6.5,3.4,6.5,7.9c0,5.1-3.9,8.5-8.9,8.5c-6,0-9.5-4.9-9.5-11.7
		c0-10,6.7-17.4,18.8-18.3v3.4c-6.9,1.1-11,4.6-11.6,10.2H113.5z"/>
</g>
<g id="line">
	<rect y="15" width="73" height="3"/>
	<rect x="127" y="15" width="73" height="3"/>
</g>
</svg>
