<svg id="Layer_1" data-name="Layer 1" xmlns="http://www.w3.org/2000/svg" width="100" height="100" viewBox="0 0 100 100">
  <defs>
    <style>
      .cls-1 {
        fill-rule: evenodd;
      }
    </style>
  </defs>
  <title>shoppingcart_add</title>
  <g>
    <path class="cls-1" d="M31.46,80.88a9.56,9.56,0,1,0,9.64,9.56,9.6,9.6,0,0,0-9.64-9.56Zm40.19,0a9.56,9.56,0,1,0,9.63,9.56,9.6,9.6,0,0,0-9.63-9.56ZM31.46,85.66a4.78,4.78,0,1,0,4.82,4.78,4.8,4.8,0,0,0-4.82-4.78Zm40.19,0a4.78,4.78,0,1,0,4.81,4.78,4.79,4.79,0,0,0-4.81-4.78Z"/>
    <path d="M86.66,75.74a2.38,2.38,0,0,1,0,3.38,2.43,2.43,0,0,1-3.41,0A15.46,15.46,0,0,0,78,75.71a18.43,18.43,0,0,0-6.67-1.21H27.91a2.41,2.41,0,0,1-2.39-2.08L16.07,24.1,16,23.82l-1.93-9.88H2.41a2.39,2.39,0,1,1,0-4.78H16.06a2.4,2.4,0,0,1,2.37,1.93l2,10.07L56.8,22a24.7,24.7,0,0,0,1.1,4.79L44.26,26.5l.51,8.17H62.42a24.15,24.15,0,0,0,3.35,3.2l-.3,4.47-.26,3.88H79.74l.6-3.2h.38a24,24,0,0,0,4.59-.44l-3.23,17.2h0a2.39,2.39,0,0,1-2.3,2L28.63,63.25l1.26,6.47h41.4a23.15,23.15,0,0,1,8.42,1.55,20.07,20.07,0,0,1,7,4.47ZM65,49.41q-.27,4.05-.54,8L77.71,57l1.43-7.63Zm-3.76,8.12c.18-2.74.37-5.44.55-8.12H45.66c.18,2.85.35,5.71.52,8.56l15-.44ZM62,46.22q.14-2.05.27-4.08l.29-4.29H45c.09,1.43.18,2.86.26,4.29l.25,4.08ZM43,58.06c-.17-2.88-.34-5.77-.52-8.65H25.92l1.78,9.11L43,58.06Zm-.71-11.84L42,42.33l-.27-4.48H23.66l1.64,8.37Zm-.71-11.55L41,26.42,21.33,26,23,34.67Z"/>
    <path class="cls-1" d="M83.15,10.05a2.43,2.43,0,0,0-4.86,0v6.66H71.58a2.41,2.41,0,1,0,0,4.82h6.71v6.66a2.43,2.43,0,0,0,4.86,0V21.53h6.72a2.41,2.41,0,1,0,0-4.82H83.15V10.05ZM80.72,0A19.13,19.13,0,1,0,100,19.12,19.2,19.2,0,0,0,80.72,0Z"/>
  </g>
</svg>
