<svg id="Layer_1" data-name="Layer 1" xmlns="http://www.w3.org/2000/svg" width="100" height="87.5" viewBox="0 0 100 87.5">
  <defs>
    <style>
      .cls-1 {
        fill: #fff;
      }
    </style>
  </defs>
  <title>speech_bubble</title>
  <path class="cls-1" d="M92.69,0H7.31A7.31,7.31,0,0,0,0,7.31V58.69A7.31,7.31,0,0,0,7.31,66H16.5V87.5L38,66H92.69A7.31,7.31,0,0,0,100,58.69V7.31A7.31,7.31,0,0,0,92.69,0Z"/>
  <rect x="15" y="14" width="59" height="5" rx="2.5" ry="2.5"/>
  <rect x="15" y="24" width="72" height="5" rx="2.5" ry="2.5"/>
  <rect x="15" y="34" width="68" height="5" rx="2.5" ry="2.5"/>
  <rect x="15" y="44" width="56" height="5" rx="2.5" ry="2.5"/>
</svg>
